<?xml version="1.0" encoding="UTF-8" standalone="no"?>
<!-- Uploaded to: SVG Repo, www.svgrepo.com, Generator: SVG Repo Mixer Tools -->

<svg
   xmlns:dc="http://purl.org/dc/elements/1.1/"
   xmlns:cc="http://creativecommons.org/ns#"
   xmlns:rdf="http://www.w3.org/1999/02/22-rdf-syntax-ns#"
   xmlns:svg="http://www.w3.org/2000/svg"
   xmlns="http://www.w3.org/2000/svg"
   xmlns:sodipodi="http://sodipodi.sourceforge.net/DTD/sodipodi-0.dtd"
   xmlns:inkscape="http://www.inkscape.org/namespaces/inkscape"
   width="194.51392"
   height="77.56308"
   viewBox="0 0 7.7805566 3.1025231"
   version="1.1"
   id="svg6"
   sodipodi:docname="ebay_grey.svg"
   inkscape:version="0.92.5 (2060ec1f9f, 2020-04-08)"
   style="fill:#000000">
  <metadata
     id="metadata12">
    <rdf:RDF>
      <cc:Work
         rdf:about="">
        <dc:format>image/svg+xml</dc:format>
        <dc:type
           rdf:resource="http://purl.org/dc/dcmitype/StillImage" />
        <dc:title>ebay</dc:title>
      </cc:Work>
    </rdf:RDF>
  </metadata>
  <defs
     id="defs10" />
  <sodipodi:namedview
     pagecolor="#ffffff"
     bordercolor="#666666"
     borderopacity="1"
     objecttolerance="10"
     gridtolerance="10"
     guidetolerance="10"
     inkscape:pageopacity="0"
     inkscape:pageshadow="2"
     inkscape:window-width="3696"
     inkscape:window-height="2032"
     id="namedview8"
     showgrid="false"
     inkscape:zoom="4"
     inkscape:cx="-71.957731"
     inkscape:cy="46.905631"
     inkscape:window-x="3984"
     inkscape:window-y="54"
     inkscape:window-maximized="1"
     inkscape:current-layer="svg6" />
  <title
     id="title2">ebay</title>
  <g
     style="fill:#000000"
     id="g859"
     transform="scale(0.25934323)">
    <path
       inkscape:connector-curvature="0"
       style="fill:#858a8c;fill-opacity:1"
       id="path4"
       d="m 5.987,5.578 c 0,-0.004 0,-0.008 0,-0.013 0,-1.067 -0.865,-1.932 -1.932,-1.932 -0.079,0 -0.157,0.005 -0.233,0.014 L 3.831,3.646 C 3.77,3.64 3.7,3.636 3.629,3.636 2.531,3.636 1.632,4.491 1.563,5.572 v 0.006 z m 5.436,3.142 c 0.012,0 0.026,0 0.041,0 1.278,0 2.313,-1.036 2.313,-2.313 0,-0.074 -0.004,-0.148 -0.01,-0.221 l 0.001,0.009 c 0.003,-0.047 0.005,-0.101 0.005,-0.155 0,-1.308 -1.061,-2.369 -2.369,-2.369 -1.308,0 -2.369,1.061 -2.369,2.369 0,0.055 0.002,0.109 0.005,0.163 V 6.196 C 9.034,6.26 9.03,6.334 9.03,6.408 c 0,1.277 1.035,2.312 2.312,2.312 0.014,0 0.028,0 0.043,0 h -0.002 z m 7.573,-2.343 c -1.368,0.042 -2.212,0.291 -2.212,1.187 0,0.581 0.45,1.212 1.631,1.212 0.087,0.012 0.187,0.02 0.289,0.02 1.179,0 2.134,-0.956 2.134,-2.134 0,-0.053 -0.002,-0.107 -0.006,-0.159 V 6.51 6.348 c -0.562,0 -1.237,0.008 -1.854,0.027 h 0.015 z M 7.578,6.148 V 0 h 1.5 v 3.781 c 0.626,-0.7 1.532,-1.139 2.541,-1.139 0.074,0 0.148,0.002 0.221,0.007 L 11.83,2.648 c 0.034,-0.001 0.073,-0.002 0.113,-0.002 1.891,0 3.424,1.533 3.424,3.424 0,0.051 -0.001,0.102 -0.003,0.152 V 6.215 c 0,0.018 0,0.039 0,0.06 0,0.274 -0.027,0.542 -0.08,0.8 l 0.004,-0.026 c 0.3,-1.191 1.592,-1.631 3.619,-1.68 0.637,-0.023 1.368,-0.023 1.949,-0.023 V 5.177 c 0,-1.106 -0.695,-1.555 -1.912,-1.555 -0.9,0 -1.556,0.375 -1.631,1.012 H 15.72 c 0.17,-1.612 1.874,-2.024 3.357,-2.024 0.126,-0.017 0.272,-0.027 0.421,-0.027 1.059,0 2,0.508 2.591,1.294 l 0.006,0.008 -0.545,-1.05 h 1.762 L 25.88,7.99 28.448,2.834 h 1.553 l -4.649,9.129 H 23.67 L 25.007,9.414 22.095,3.941 c 0.158,0.319 0.251,0.694 0.251,1.091 0,0.025 0,0.05 -0.001,0.074 V 5.102 8.176 c 0,0.432 0.012,0.862 0.05,1.256 H 21.003 C 20.967,9.145 20.946,8.813 20.946,8.477 V 8.476 c -0.62,0.744 -1.547,1.215 -2.584,1.215 -0.111,0 -0.221,-0.005 -0.329,-0.016 l 0.014,10e-4 c -1.849,0 -2.839,-0.975 -2.839,-2.118 0,-0.179 0.017,-0.354 0.049,-0.524 l -0.003,0.017 c -0.369,1.508 -1.708,2.61 -3.305,2.61 -0.054,0 -0.107,-10e-4 -0.16,-0.004 h 0.008 C 11.757,9.659 11.71,9.66 11.663,9.66 10.626,9.66 9.694,9.212 9.05,8.498 L 9.047,8.495 C 9.046,8.82 9.028,9.138 8.993,9.452 L 8.997,9.412 H 7.522 C 7.547,8.925 7.572,8.344 7.572,7.856 V 6.544 H 1.536 c 0.003,1.204 0.979,2.178 2.183,2.178 0.047,0 0.093,-10e-4 0.139,-0.004 H 3.852 c 0.058,0.006 0.126,0.01 0.194,0.01 0.79,0 1.468,-0.478 1.761,-1.16 L 5.812,7.556 h 1.55 C 7.062,9.168 5.35,9.712 3.876,9.712 1.198,9.738 0.011,8.255 0.011,6.268 0.004,6.186 0,6.09 0,5.993 c 0,-1.878 1.522,-3.4 3.4,-3.4 0.178,0 0.353,0.014 0.524,0.04 L 3.905,2.631 C 4.021,2.617 4.154,2.608 4.29,2.608 c 1.821,0 3.297,1.476 3.297,3.297 0,0.082 -0.003,0.163 -0.009,0.243 L 7.579,6.137 v 0.005 z" />
  </g>
</svg>
