<?xml version="1.0" encoding="UTF-8" standalone="no"?>
<!-- Uploaded to: SVG Repo, www.svgrepo.com, Generator: SVG Repo Mixer Tools -->

<svg
   xmlns:dc="http://purl.org/dc/elements/1.1/"
   xmlns:cc="http://creativecommons.org/ns#"
   xmlns:rdf="http://www.w3.org/1999/02/22-rdf-syntax-ns#"
   xmlns:svg="http://www.w3.org/2000/svg"
   xmlns="http://www.w3.org/2000/svg"
   xmlns:sodipodi="http://sodipodi.sourceforge.net/DTD/sodipodi-0.dtd"
   xmlns:inkscape="http://www.inkscape.org/namespaces/inkscape"
   width="194.51392"
   height="77.56308"
   viewBox="0 0 7.7805566 3.1025231"
   version="1.1"
   id="svg6"
   sodipodi:docname="efour_grey.svg"
   inkscape:version="0.92.5 (2060ec1f9f, 2020-04-08)"
   style="fill:#000000">
  <metadata
     id="metadata12">
    <rdf:RDF>
      <cc:Work
         rdf:about="">
        <dc:format>image/svg+xml</dc:format>
        <dc:type
           rdf:resource="http://purl.org/dc/dcmitype/StillImage" />
        <dc:title>ebay</dc:title>
      </cc:Work>
    </rdf:RDF>
  </metadata>
  <defs
     id="defs10" />
  <sodipodi:namedview
     pagecolor="#ffffff"
     bordercolor="#666666"
     borderopacity="1"
     objecttolerance="10"
     gridtolerance="10"
     guidetolerance="10"
     inkscape:pageopacity="0"
     inkscape:pageshadow="2"
     inkscape:window-width="3696"
     inkscape:window-height="2032"
     id="namedview8"
     showgrid="false"
     inkscape:zoom="5.6568545"
     inkscape:cx="115.45762"
     inkscape:cy="10.501736"
     inkscape:window-x="3984"
     inkscape:window-y="54"
     inkscape:window-maximized="1"
     inkscape:current-layer="svg6" />
  <title
     id="title2">ebay</title>
  <path
     inkscape:connector-curvature="0"
     style="font-style:normal;font-variant:normal;font-weight:normal;font-stretch:normal;font-size:70.45880127px;line-height:1.25;font-family:'Accidental Presidency';-inkscape-font-specification:'Accidental Presidency, Normal';font-variant-ligatures:normal;font-variant-caps:normal;font-variant-numeric:normal;fill:#868a8c;fill-opacity:1;stroke:none;stroke-width:0.09505714"
     d="m 0.88542336,0.72795721 c -0.16510245,0 -0.31111069,0.0606494 -0.42819364,0.17773231 C 0.34014808,1.0227724 0.27954528,1.1687381 0.27954528,1.3338364 v 0.677533 c 0,0.1650983 0.0606003,0.3110849 0.17768444,0.4281702 0.11708558,0.1170853 0.26309523,0.1777091 0.42819364,0.1777091 h 0.0968014 c 0.16509854,0 0.31108704,-0.060603 0.42816984,-0.1776856 0.117083,-0.1170829 0.1777097,-0.2630907 0.1777097,-0.4281937 2.6e-6,-0.026229 -0.021261,-0.047492 -0.04749,-0.047489 H 1.1720861 c -0.023114,3.1e-6 -0.042866,0.016649 -0.046789,0.039426 -0.011795,0.068446 -0.028971,0.1173179 -0.046297,0.1444762 -0.017325,0.027159 -0.028155,0.032018 -0.044661,0.032018 -0.11272781,0 -0.18670558,-0.022361 -0.22538518,-0.055178 -0.0371379,-0.033932 -0.0621649,-0.101977 -0.0621649,-0.213769 V 1.8950551 H 1.540614 c 0.026229,3.7e-6 0.047492,-0.02126 0.04749,-0.047489 V 1.3338364 C 1.588104,1.1687332 1.527475,1.02277 1.4103944,0.90568952 1.2933144,0.78860903 1.1473273,0.72795721 0.98222476,0.72795721 Z m 0.0409455,0.42630059 c 0.0704329,0 0.11298414,0.019735 0.14393914,0.059735 0.030954,0.04 0.05055,0.1073613 0.05055,0.205473 v 0.07128 l -0.37406724,-0.00297 v -0.068312 c 0,-0.09849 0.0186981,-0.1666804 0.0476979,-0.2066182 0.0290008,-0.039938 0.0670822,-0.05859 0.13188037,-0.05859 z"
     id="path889-6"
     sodipodi:nodetypes="scsssssccccccscscccssssccsccsccc" />
  <path
     inkscape:connector-curvature="0"
     style="font-style:normal;font-variant:normal;font-weight:normal;font-stretch:normal;font-size:70.45880127px;line-height:1.25;font-family:'Accidental Presidency';-inkscape-font-specification:'Accidental Presidency, Normal';font-variant-ligatures:normal;font-variant-caps:normal;font-variant-numeric:normal;fill:#868a8c;fill-opacity:1;stroke:none;stroke-width:0.09505714"
     d="m 0.88542336,0.81643773 c -0.1441727,0 -0.26324002,0.0493997 -0.36563045,0.15179118 C 0.41740247,1.07062 0.36802554,1.1896597 0.36802554,1.3338362 v 0.6775331 c 0,0.1441766 0.0493786,0.2632419 0.15176737,0.365631 0.10238911,0.1023888 0.22145371,0.1517677 0.36563045,0.1517677 h 0.0968014 C 1.1264003,2.528768 1.245441,2.479391 1.3478314,2.3770003 1.4400904,2.2847423 1.4870885,2.1778622 1.4959303,2.0523611 H 1.2044078 c -0.012313,0.057651 -0.027706,0.1067923 -0.050807,0.1430039 -0.027822,0.04361 -0.071079,0.072916 -0.1192599,0.072916 -0.12424856,0 -0.21971773,-0.022149 -0.2835534,-0.076866 -2.6708e-4,-2.39e-4 -5.3134e-4,-4.783e-4 -7.9702e-4,-7.306e-4 -0.0648568,-0.058679 -0.09166,-0.1547342 -0.09166,-0.2798377 v -0.063281 c 3.95e-6,-0.022637 0.0183545,-0.040988 0.040992,-0.040992 H 1.4996442 V 1.3338364 c 0,-0.1441724 -0.049398,-0.2632142 -0.1517913,-0.36560741 C 1.2454595,0.86583584 1.1264176,0.8164379 0.98224466,0.8164379 Z m 0.0409455,0.24933947 c 0.0894871,0 0.16548504,0.03149 0.21390964,0.094066 0.048426,0.062576 0.06906,0.1501005 0.06906,0.2596224 v 0.1191193 c -1.4e-6,0.022767 -0.018552,0.04117 -0.041319,0.040992 l -0.46904514,-0.00372 c -0.0225101,-1.792e-4 -0.0406626,-0.018481 -0.0406643,-0.040992 v -0.115403 c 0,-0.1091953 0.0190943,-0.1959873 0.064573,-0.2586173 0.045477,-0.06263 0.11838328,-0.095071 0.20348571,-0.095071 z"
     id="path900-5"
     sodipodi:nodetypes="scsssssccccsccscccscssccsccccsscc" />
  <path
     style="font-style:normal;font-variant:normal;font-weight:normal;font-stretch:normal;font-size:70.45880127px;line-height:1.25;font-family:'Accidental Presidency';-inkscape-font-specification:'Accidental Presidency, Normal';font-variant-ligatures:normal;font-variant-caps:normal;font-variant-numeric:normal;fill:#868a8c;fill-opacity:1;stroke:none;stroke-width:0.09505714"
     d="m 2.644823,0.01319507 c -0.1696302,0 -0.326972,0.05951772 -0.4656806,0.1746007 -2.39e-5,2.154e-5 -4.57e-5,4.991e-5 -9.14e-5,7.24e-5 -0.1471216,0.12087904 -0.2247358,0.27111519 -0.2220184,0.4394347 l -2.39e-5,-7.7101e-4 V 0.78379171 H 1.8220908 c -0.02601,7.56e-6 -0.047173,0.0209419 -0.047465,0.0469512 l -0.00373,0.33132289 c -2.671e-4,0.026429 0.021033,0.048018 0.047464,0.048026 H 1.95716 l 0.00358,1.3226044 c 9.13e-5,0.026175 0.021315,0.047353 0.047488,0.047348 h 0.3648135 c 0.026229,3.7e-6 0.047492,-0.02126 0.047488,-0.047489 V 1.206374 h 0.2242868 c 0.026229,3.5e-6 0.047492,-0.02126 0.047488,-0.047489 l -2.39e-5,-0.32760718 c 4e-6,-0.0262289 -0.021259,-0.0474924 -0.047488,-0.0474889 H 2.4235818 c 0.00366,-0.0951264 0.015065,-0.16949798 0.033233,-0.207483 1.336e-4,-4.0238e-4 3.986e-4,-8.0756e-4 5.314e-4,-0.001212 C 2.4902782,0.50099662 2.5411052,0.47079045 2.64001,0.4729884 2.666439,0.47356613 2.688252,0.452448 2.688528,0.4260135 L 2.692268,0.06117729 C 2.6925365,0.03476595 2.671218,0.01320541 2.644806,0.01319759 Z m 3.813451,0.67753301 c -0.109888,0 -0.1995291,0.017939 -0.2691808,0.0546402 -0.00207,-0.0243708 -0.02233,-0.0431761 -0.046789,-0.0434458 l -0.387155,-0.003743 c -0.026438,-2.6356e-4 -0.048,0.0211193 -0.047956,0.0475591 l 0.00374,1.78690522 c 3.51e-5,0.026192 0.021296,0.047399 0.047488,0.047395 h 0.3908715 c 0.026283,3.7e-6 0.047571,-0.021345 0.047488,-0.047629 l -0.00372,-1.2508336 c 2.39e-5,-0.062449 0.015199,-0.1004922 0.040408,-0.124845 0.02523,-0.024373 0.06617,-0.039707 0.1317395,-0.039707 0.088629,0 0.1342392,0.028482 0.1650188,0.09825 0.012605,0.028579 0.048889,0.037416 0.07322,0.017832 L 6.908713,0.98739242 C 6.928358,0.97157332 6.932207,0.94315422 6.917483,0.92267972 6.8080377,0.77052164 6.6494942,0.69072817 6.4582793,0.69072817 Z m -2.1828716,0.0111707 c -0.026174,-3.78e-6 -0.047415,0.0211747 -0.04749,0.0473483 l -0.00372,1.23592332 c 0,4.92e-5 0,9.49e-5 0,1.476e-4 0,0.1638238 0.053008,0.3086295 0.1571428,0.4261134 0.1050732,0.1185455 0.2464089,0.1797656 0.4115061,0.1797656 0.109888,0 0.1995291,-0.017939 0.2691808,-0.05464 0.00207,0.024389 0.022336,0.04321 0.046812,0.043469 l 0.387155,0.00372 c 0.026428,2.53e-4 0.047976,-0.021128 0.047932,-0.047559 l -0.00372,-1.78688139 c -3.51e-5,-0.026192 -0.021296,-0.0473992 -0.047488,-0.0473957 H 5.1018494 c -0.026283,-3.78e-6 -0.04757,0.0213451 -0.047488,0.0476294 l 0.00372,1.25081029 c -2.53e-5,0.062449 -0.015197,0.10051 -0.040409,0.1248683 -0.02523,0.024379 -0.066172,0.039707 -0.1317385,0.039707 -0.070431,0 -0.112984,-0.019752 -0.143939,-0.059759 -0.030955,-0.040006 -0.05055,-0.1073613 -0.05055,-0.2054731 0,-5.97e-5 0,-1.089e-4 0,-1.616e-4 l -0.00372,-1.15029394 c -1.054e-4,-0.0261648 -0.021324,-0.047329 -0.04749,-0.0473254 z m -0.9005338,0.0260585 c -0.1651024,0 -0.3110868,0.0606257 -0.4281697,0.17770887 C 2.8296159,1.022749 2.7689906,1.1687381 2.7689906,1.3338362 v 0.6775331 c 0,0.1650983 0.060599,0.3111083 0.1776843,0.4281936 0.1170856,0.1170852 0.2630952,0.1776856 0.4281937,0.1776856 h 0.0968 c 0.1650984,0 0.3110642,-0.060603 0.4281471,-0.1776856 l 2.39e-5,-2.39e-5 C 4.0169226,2.3224562 4.0775493,2.1764721 4.0775493,2.0113689 V 1.3338362 C 4.0775493,1.1687331 4.0169203,1.02277 3.8998397,0.90568952 3.7827582,0.78860912 3.6367725,0.72795721 3.4716687,0.72795721 Z m 0.040945,0.42630052 c 0.070434,0 0.1129854,0.019735 0.143939,0.059735 0.030955,0.04 0.050551,0.1073614 0.050551,0.2054731 v 0.4913872 c 0,0.098488 -0.018693,0.1666966 -0.0477,0.2066416 -0.029006,0.039945 -0.067107,0.05859 -0.1319029,0.05859 -0.070431,0 -0.1129655,-0.019753 -0.1439151,-0.059759 C 3.255834,2.0763217 3.2362337,2.0089666 3.2362337,1.9108531 V 1.4194657 c 0,-0.09849 0.0187,-0.1666807 0.0477,-0.2066181 0.029001,-0.039938 0.06708,-0.05859 0.1318799,-0.05859 z"
     id="path889"
     inkscape:connector-curvature="0"
     sodipodi:nodetypes="ccccccccccccccccccccccccccccscccccccccssccccscccccscccccccccssccccccsssscssccsscssscsssscsscs" />
  <path
     style="font-style:normal;font-variant:normal;font-weight:normal;font-stretch:normal;font-size:70.45880127px;line-height:1.25;font-family:'Accidental Presidency';-inkscape-font-specification:'Accidental Presidency, Normal';font-variant-ligatures:normal;font-variant-caps:normal;font-variant-numeric:normal;fill:#868a8c;fill-opacity:1;stroke:none;stroke-width:0.09505714"
     d="m 2.6033634,0.10527467 c -0.1327848,0.008662 -0.2544964,0.0565991 -0.3679215,0.15076286 -4.57e-5,3.935e-5 -9.13e-5,7.696e-5 -1.335e-4,1.1772e-4 -0.1319096,0.10835302 -0.1920502,0.22835124 -0.1897683,0.36972068 1.3e-6,2.1788e-4 1.3e-6,4.3857e-4 0,6.5434e-4 v 0.20474854 c -2.6e-6,0.0226375 -0.018353,0.0409885 -0.040992,0.040992 h -0.141881 l -0.0028,0.24933969 h 0.1446867 c 0.022593,2.9e-6 0.040924,0.018282 0.04099,0.040875 l 0.0036,1.329078 h 0.2829429 v -1.332678 c 4e-6,-0.022638 0.018355,-0.040988 0.040992,-0.040992 H 2.6038628 V 0.87226977 H 2.3730786 c -0.022638,-2.98e-6 -0.040989,-0.0183537 -0.040992,-0.040992 0,-0.12926643 0.012578,-0.22502587 0.044825,-0.29271501 C 2.4171176,0.44870486 2.4984055,0.39821313 2.6004971,0.3886413 Z M 6.458274,0.77920869 c -0.1502811,0 -0.2430582,0.0339479 -0.2884849,0.0892517 -0.024952,0.030352 -0.074183,0.0116135 -0.072635,-0.0276469 l 0.00203,-0.0508308 -0.3033955,-0.002943 0.00353,1.70452461 H 6.1082058 L 6.1045758,1.281839 c 0,-3.52e-5 0,-8.44e-5 0,-1.16e-4 0,-0.077802 0.020995,-0.1437719 0.067423,-0.188623 0.046429,-0.044851 0.1133921,-0.064549 0.1932033,-0.064549 0.093815,0 0.1700152,0.038985 0.2183046,0.1070368 L 6.8214489,0.94406699 C 6.7296241,0.83299215 6.6124403,0.77921186 6.4582715,0.77921186 Z m -2.1419964,0.0111716 -0.0036,1.19504831 c 2.39e-5,0.145222 0.044448,0.2652969 0.1348717,0.3673136 0.089636,0.1011281 0.2011217,0.1499682 0.3452983,0.1499682 0.1502796,0 0.2430568,-0.033948 0.2884849,-0.089252 0.024952,-0.030352 0.074181,-0.011613 0.072635,0.027647 l -0.00203,0.050854 0.3034192,0.00292 -0.00353,-1.7045009 H 5.1429355 l 0.00363,1.2097017 c 0,3.51e-5 0,8.43e-5 0,1.159e-4 0,0.077802 -0.020997,0.143766 -0.067423,0.188623 -0.046428,0.044857 -0.1133892,0.064573 -0.1932046,0.064573 -0.089488,0 -0.1654848,-0.031508 -0.2139095,-0.09409 -0.048404,-0.06255 -0.069043,-0.1500249 -0.069062,-0.2594781 v -1.406e-4 l -0.0036,-1.10930232 z m -0.941409,0.0260576 c -0.1441728,0 -0.26324,0.0493997 -0.3656304,0.15179109 C 2.9068478,1.0706201 2.8574695,1.1896601 2.8574695,1.3338363 v 0.677533 c 0,0.1441765 0.04938,0.2632419 0.1517687,0.3656308 0.1023891,0.102389 0.2214537,0.1517678 0.3656304,0.1517678 h 0.0968 c 0.1441768,0 0.2632161,-0.049377 0.3656077,-0.1517678 0.102392,-0.102391 0.1517916,-0.2214583 0.1517916,-0.3656308 V 1.3338362 c 0,-0.1441722 -0.049398,-0.2632141 -0.1517915,-0.36560729 C 3.7348834,0.86583566 3.6158415,0.81643773 3.4716687,0.81643773 Z m 0.040945,0.24933941 c 0.089487,0 0.165485,0.03149 0.2139109,0.094066 0.048424,0.062576 0.06906,0.1501005 0.06906,0.2596224 V 1.910853 c 0,0.1091968 -0.019113,0.195983 -0.064595,0.2586174 -0.045485,0.062634 -0.1183843,0.095095 -0.2034883,0.095095 -0.089488,3e-7 -0.1654691,-0.031506 -0.213887,-0.094089 -0.048417,-0.062583 -0.06906,-0.150102 -0.06906,-0.2596224 V 1.4194657 c 0,-0.1091955 0.019118,-0.1959875 0.064597,-0.2586175 0.045477,-0.06263 0.1183606,-0.095071 0.2034624,-0.095071 z"
     id="path900"
     inkscape:connector-curvature="0"
     sodipodi:nodetypes="cccccccccccccccccccccccccccccccssccccccsscccccccccscccccsssscsscsscssssssccssscs" />
</svg>
